<svg xmlns="http://www.w3.org/2000/svg" xmlns:xlink="http://www.w3.org/1999/xlink" width="295px" height="54px" viewBox="0 0 295 54"><title>twon-and-sea-logo@2x</title><g id="Symbols" stroke="none" stroke-width="1" fill="none" fill-rule="evenodd"><g id="Header-v1" fill-rule="nonzero"><g id="twon-and-sea-logo"><g id="Town-&amp;-Sea-Copy" fill="#9AB7D3"><path d="M8.54473689,30.81884 C8.59018761,31.0459862 8.7265398,31.1822739 9.18104708,31.1822739 C10.1355124,31.1822739 12.8171053,30.9551277 14.6805852,30.9551277 C16.9076709,30.9551277 20.3164755,31.0914154 20.9527857,31.0914154 C21.3618422,31.0914154 21.4527437,31.0005569 21.5436451,30.81884 L21.6345466,30.2736893 C21.6799973,30.1828308 21.5890959,30.1374016 21.4072929,30.1374016 C20.0437711,29.9556847 18.1348405,29.6831093 17.3621781,29.1379585 C16.8622201,28.7745247 16.6804172,28.2293739 16.544065,27.5479355 C16.4077129,26.7302093 16.2713607,24.8221817 16.2713607,18.1440849 L16.2713607,13.6011619 C16.2713607,7.51364505 16.4531636,5.10589586 16.4986143,4.33359895 C16.544065,3.47044358 16.6804172,3.15243897 17.225826,3.15243897 L20.4982784,3.15243897 C23.9525337,3.15243897 25.8160136,3.47044358 26.2705209,3.69758973 C26.7704789,3.87930665 26.906831,4.24274049 26.9522818,4.51531587 C26.9977325,4.96960817 26.9977325,6.19619738 26.9977325,6.78677737 C26.9977325,6.96849429 27.0431832,7.10478198 27.1795354,7.15021121 C27.3158876,7.19564044 27.5431412,7.24106967 27.6794934,7.24106967 C27.9067471,7.24106967 27.9976485,7.15021121 27.9976485,6.87763583 C28.2249022,4.37902818 28.2703529,3.33415589 29.1339167,0.926406706 C29.2702689,0.653831326 29.2702689,0.472114407 29.2248182,0.381255947 C28.9975645,0.199539027 28.6339587,0.017822107 28.4976065,0.017822107 C28.4067051,0.017822107 28.3612543,0.017822107 28.3158036,0.154109797 C27.9976485,0.926406706 27.6794934,1.33526978 27.3158876,1.42612824 C26.8613803,1.60784516 26.1796194,1.69870362 24.7251961,1.74413285 C21.907251,1.88042054 17.725784,1.92584977 12.9080068,1.92584977 C8.90834271,1.92584977 7.18121504,1.92584977 5.63589029,1.88042054 C4.54507281,1.83499131 3.99966407,1.78956208 3.63605825,1.65327439 C3.31790315,1.56241593 3.2270017,1.24441132 3.13610024,0.381255947 C3.13610024,0.199539027 3.04519878,0.154109797 2.86339587,0.108680567 C2.5906915,0.017822107 2.36343786,-0.0276071229 2.27253641,0.017822107 C1.59077548,3.24329743 0.590859466,5.4693297 0,6.60506045 C0.0454507281,6.69591891 0.454507281,7.10478198 0.681760922,7.24106967 C0.818113106,7.33192813 0.95446529,7.33192813 0.999916019,7.15021121 C1.63622621,5.69647585 2.22708568,4.51531587 2.9088466,4.06102357 C3.27245242,3.83387742 4.49962208,3.1978682 8.90834271,3.1978682 L13.1352604,3.1978682 C13.3170633,3.28872666 13.3170633,4.78789125 13.3170633,13.1468696 L13.3170633,17.7352218 C13.3170633,24.5041771 13.0898097,27.5479355 12.9989082,28.1385155 C12.8171053,29.228817 12.2262459,29.5468216 11.0899777,29.7739677 C10.4082167,29.9556847 9.18104708,30.1374016 8.49928616,30.22826 L8.54473689,30.81884 Z" id="Path"></path><path d="M48.7029802,1.10812363 C44.9760205,1.10812363 41.2945115,2.60728821 38.3856649,5.15132509 C34.704156,8.28594196 33.2042819,12.2837142 33.2042819,16.0997695 C33.2042819,19.7341079 34.704156,23.7773094 37.0221431,26.3667755 C40.0673419,29.7285385 44.8851191,31.7728539 49.6119948,31.7728539 C51.9754326,31.7728539 56.0205474,30.7734108 59.0202955,27.7296524 C61.2019305,25.4127617 63.9744249,21.3695602 63.9744249,15.7817649 C63.9744249,7.55907428 56.6114069,1.10812363 48.7029802,1.10812363 Z M47.3849091,2.4255713 C51.3391225,2.4255713 54.1116169,4.01559434 56.0205474,6.10533892 C59.2475491,9.69424809 60.4292681,13.6011619 60.4292681,17.5989341 C60.4292681,26.4122047 55.7478431,30.3191185 50.248305,30.3191185 C47.0213033,30.3191185 44.067006,29.1379585 41.0672579,26.0942001 C38.4311157,23.4138755 36.9766924,19.5978202 36.9766924,15.5546188 C36.9766924,12.7834357 37.6130026,8.46765888 40.2491448,5.69647585 C42.6125827,3.15243897 44.9305698,2.4255713 47.3849091,2.4255713 Z" id="Shape"></path><path d="M81.6345578,31.2277031 C81.7254592,31.5911369 81.8618114,31.7274246 82.0436143,31.7274246 C82.1799665,31.7274246 82.3617694,31.6819954 82.4981216,31.5911369 C82.6344738,31.5457077 82.6799245,31.40942 82.8162767,31.0914154 C83.270784,29.9102554 84.2252493,27.9113693 84.770658,26.5030632 C86.9977437,20.7789802 88.5430685,17.3263587 90.4974498,12.4654311 C92.7699862,18.0986556 95.133424,24.3678894 95.9060864,26.5939216 C96.6787488,28.638237 97.0423546,29.7285385 97.3605097,30.6825523 C97.5877634,31.3185616 97.815017,31.5911369 98.1786228,31.5911369 C98.3604257,31.5911369 98.4967779,31.4548492 98.6785808,31.0914154 C99.2694403,29.8648262 100.133004,28.0022278 100.405708,27.3662185 C103.087301,20.2792587 106.814261,11.1479834 108.405037,7.46821582 C110.223066,3.37958512 110.49577,2.87986359 112.631954,2.78900513 C112.722856,2.78900513 112.813757,2.7435759 112.813757,2.69814667 L112.768307,2.06213746 C112.722856,1.88042054 112.541053,1.78956208 111.995644,1.78956208 C111.677489,1.78956208 110.086714,1.88042054 108.814093,1.88042054 C108.041431,1.88042054 105.996148,1.69870362 105.268936,1.69870362 C104.85988,1.69870362 104.768978,1.83499131 104.723528,2.38014207 C104.678077,2.51642975 104.678077,2.60728821 104.85988,2.69814667 C105.405289,2.7435759 106.1325,2.78900513 106.677909,2.97072205 C107.35967,3.15243897 107.723276,3.37958512 107.450571,4.37902818 C106.268852,9.01280964 101.496526,21.142414 99.4512432,25.9579124 C99.3603417,26.2304878 99.1330881,26.2304878 99.0421867,25.9579124 C96.6787488,20.3246879 92.4972818,9.69424809 90.6792527,4.42445741 C90.3156469,3.33415589 90.7247034,3.1978682 92.9063384,2.7435759 C93.133592,2.69814667 93.0881413,1.92584977 92.8154369,1.83499131 C91.7700702,1.83499131 90.6338019,1.92584977 88.952125,1.92584977 C87.8613075,1.92584977 86.1796306,1.83499131 85.0433624,1.83499131 C84.770658,1.83499131 84.5888551,2.06213746 84.4979537,2.56185898 C84.4525029,2.69814667 84.5888551,2.78900513 84.7252073,2.78900513 C86.6341379,3.10700974 86.9977437,3.28872666 87.452251,4.33359895 C87.952209,5.60561739 88.4976177,6.87763583 89.4975337,9.73967732 C89.6793367,10.1939696 89.7247874,10.5119742 89.5884352,10.8299788 C88.6794206,13.237728 85.0433624,22.3690032 83.4071362,26.0033416 C83.3162347,26.1850586 83.0435304,26.1850586 82.9071782,25.9124832 C81.4982056,22.6870079 76.9531328,11.9202804 74.6351457,5.42390047 C74.3624413,4.69703279 74.2260891,4.1064528 74.1806384,3.74301896 C74.1351876,3.24329743 74.7260471,3.06158051 76.1804704,2.87986359 C76.5440762,2.78900513 76.589527,2.65271744 76.589527,2.51642975 C76.589527,2.19842515 76.4531748,1.83499131 76.2259211,1.83499131 C74.8623993,1.83499131 73.4988774,1.92584977 72.1808063,1.92584977 C71.1808903,1.92584977 69.5446641,1.83499131 68.726551,1.83499131 C68.4083959,1.83499131 68.226593,1.92584977 68.1356915,2.06213746 C68.0447901,2.15299592 67.8629872,2.51642975 67.8629872,2.56185898 C67.8629872,2.65271744 67.8629872,2.69814667 68.1356915,2.7435759 C70.226425,3.01615128 70.4082279,3.47044358 71.6808483,6.46877276 C74.90785,14.0100249 77.8166966,21.4604186 79.1802185,24.9584694 C80.5437403,28.3202324 81.3618534,30.5462646 81.6345578,31.2277031 Z" id="Path"></path><path d="M116.656869,2.47100052 C116.656869,2.65271744 116.70232,2.69814667 116.929573,2.7435759 C118.838504,2.97072205 119.565715,3.42501435 120.202026,4.15188203 C120.883787,4.83332048 121.020139,5.51475893 121.020139,9.73967732 L121.020139,14.9186095 C121.020139,21.732994 120.701984,26.1396293 120.520181,27.3662185 C120.292927,29.0016708 119.974772,29.5013924 117.33863,30.3191185 C117.38408,30.5916939 117.474982,30.8642693 117.611334,31.1368446 C118.293095,31.1368446 119.474814,30.9551277 121.11104,30.9551277 C122.792717,30.9551277 124.610746,31.1368446 126.519677,31.1368446 C126.656029,31.1368446 126.837832,31.0005569 126.792381,30.81884 L126.565128,30.1828308 C124.428943,29.6831093 123.383577,29.3196754 123.065422,28.4110908 C122.474562,26.7756386 122.429111,21.5058479 122.429111,14.8731803 C122.429111,11.7385634 122.429111,9.1036681 122.610914,7.19564044 C126.928733,11.5568465 130.610242,15.2366141 133.928146,18.5983772 C138.382317,23.1867294 142.92739,27.457077 145.563532,31.5911369 C145.790786,31.8182831 145.881687,31.8637123 146.06349,31.8182831 C146.290744,31.7274246 146.563448,31.5911369 146.563448,31.4548492 C146.563448,30.6371231 146.427096,27.9113693 146.427096,25.5036201 C146.427096,18.8255233 146.472546,15.9634818 146.563448,12.0111388 C146.745251,5.33304201 147.063406,3.97016511 147.790618,3.51587281 C148.472379,3.01615128 149.154139,2.78900513 150.42676,2.47100052 L150.244957,1.92584977 C150.199506,1.78956208 150.108605,1.69870362 149.881351,1.69870362 C148.745083,1.69870362 147.108857,1.92584977 145.336278,1.92584977 C143.836404,1.92584977 142.33653,1.88042054 140.836656,1.88042054 L140.882107,2.60728821 C140.882107,2.69814667 140.973008,2.7435759 141.109361,2.83443436 C141.836572,2.87986359 142.92739,3.10700974 143.472798,3.37958512 C144.563616,3.74301896 144.699968,4.83332048 144.79087,5.923622 C144.972672,8.46765888 145.018123,10.6936911 145.018123,15.3729018 C145.063574,18.6438064 145.018123,23.4593048 144.927222,25.3219032 C135.882527,16.4177741 128.928565,9.5579604 126.06517,6.51420199 C125.201606,5.65104662 123.429027,3.37958512 123.110872,2.87986359 C122.883619,2.51642975 122.701816,2.24385438 122.565463,2.06213746 C122.474562,1.971279 122.247308,1.92584977 121.929153,1.92584977 C119.429363,1.92584977 118.383997,1.83499131 116.656869,1.78956208 L116.656869,2.47100052 Z" id="Path"></path><path d="M177.611345,3.87930665 C176.611429,3.87930665 176.247823,4.1064528 175.566063,4.51531587 C174.111639,5.42390047 173.475329,6.05990969 173.066273,6.55963122 C171.702751,8.05879581 171.384596,9.42167271 171.384596,10.9662665 C171.384596,12.647148 172.429962,14.1008834 173.020822,14.7368926 C173.293526,14.9640388 173.384428,15.2366141 173.248075,15.3274726 C170.975539,17.0992126 169.839271,17.9623679 169.248411,18.6892356 C168.475749,19.6432495 167.475833,21.324131 167.475833,23.6410217 C167.475833,25.276474 167.93034,27.3662185 169.612017,29.0925293 C171.975455,31.5002785 174.475245,31.5002785 175.929668,31.5002785 C176.975035,31.5002785 178.52036,31.0005569 179.202121,30.5462646 C180.838347,29.5013924 182.474573,27.6387939 183.792644,25.7307663 C185.474321,28.6836662 187.29235,31.6819954 190.655704,31.6819954 C193.428199,31.6819954 195.38258,29.1379585 196.200693,26.6847801 C196.291595,26.5030632 195.973439,26.0487709 195.837087,26.0487709 C195.700735,26.0487709 195.428031,26.0942001 195.38258,26.1396293 C194.791721,27.8205108 194.064509,29.0925293 192.337381,29.0925293 C188.837675,29.0925293 187.155998,26.0942001 185.928829,23.1413002 C185.792476,22.7778663 185.883378,22.5961494 186.110631,22.1418571 C187.2469,20.5064048 187.928661,19.5069618 189.292182,17.3263587 C190.792056,14.7823218 193.155494,11.0116958 193.837255,10.3302573 C194.15541,9.96682347 194.382664,9.69424809 196.109792,9.73967732 C196.246144,9.69424809 196.246144,8.87652195 196.155242,8.69480503 C196.064341,8.55851734 195.973439,8.51308811 195.927989,8.46765888 C195.246228,8.69480503 194.10996,8.78566349 193.155494,8.78566349 C191.928325,8.78566349 190.882958,8.55851734 190.610254,8.46765888 C190.292098,8.37680042 190.155746,8.37680042 190.064845,8.46765888 C189.928493,8.60394657 189.74669,8.87652195 189.655788,9.1036681 C190.655704,9.64881886 190.792056,9.87596501 190.792056,10.4211158 C190.792056,11.5114173 188.474069,16.8266372 185.519772,20.9606971 C185.337969,21.2332725 185.201617,21.2332725 184.974363,20.9152679 C183.201785,17.9623679 181.111051,16.0089111 179.520276,15.1911849 C179.338473,15.1003265 179.247572,14.9640388 179.474825,14.6914634 C180.111135,13.9191665 180.974699,13.0560111 181.65646,12.4200019 C181.929164,12.1019973 182.520024,10.5574035 182.520024,9.33081425 C182.520024,8.10422504 182.156418,6.65048968 180.974699,5.37847124 C180.247488,4.60617433 178.883966,3.87930665 177.611345,3.87930665 Z M176.520528,5.83276354 C177.656796,5.83276354 180.42929,6.46877276 180.42929,10.6936911 C180.42929,11.6931342 180.065685,12.5562896 179.74753,12.9651526 C179.293022,13.6011619 178.429458,14.0100249 177.974951,14.0100249 C176.747781,14.0100249 174.747949,13.1014403 173.793484,11.5568465 C173.293526,10.6936911 173.202625,9.92139424 173.202625,9.14909733 C173.202625,8.14965427 173.702583,7.19564044 174.202541,6.74134814 C174.884302,6.01448046 175.702415,5.83276354 176.520528,5.83276354 Z M174.838851,16.0089111 C175.520612,16.0089111 176.929584,16.5086326 178.293106,17.4626464 C179.79298,18.5529479 181.883714,20.5064048 183.156334,23.8227386 C183.247236,24.095314 183.292686,24.5496063 183.156334,24.7313232 C182.565475,25.685337 181.565559,26.8210678 180.38384,27.5933647 C178.883966,28.6836662 177.202289,28.9562416 176.338725,28.9562416 C174.611597,28.9562416 172.702667,28.3656616 171.384596,26.5939216 C170.566482,25.3673324 170.202877,23.8681678 170.202877,22.323574 C170.202877,19.9158248 171.930004,17.4626464 173.748033,16.3269157 C174.202541,16.0543403 174.566147,16.0089111 174.838851,16.0089111 Z" id="Shape"></path><path d="M214.340584,32 C214.476936,32 214.567837,31.9545708 214.840542,31.7274246 C215.113246,31.5002785 215.431401,31.2731323 215.658655,31.1822739 C215.885908,31.0459862 216.113162,31.0005569 216.476768,31.0914154 C218.431149,31.40942 220.158277,31.7274246 222.067208,31.7274246 C223.430729,31.7274246 227.066788,31.1822739 228.975718,30.0919723 C231.248255,28.7745247 232.793579,26.4576339 232.793579,23.2775878 C232.793579,21.3695602 232.20272,19.6432495 230.611944,18.1440849 C229.157521,16.781208 227.20314,15.8271941 224.021589,14.6006049 C220.703686,13.3740157 219.11291,12.5108603 218.112994,11.2842711 C217.431233,10.466545 216.931275,9.42167271 216.931275,7.92250812 C216.931275,4.83332048 219.158361,2.38014207 222.748968,2.38014207 C225.33966,2.38014207 227.566746,3.15243897 228.612112,4.24274049 C229.657479,5.28761278 230.021085,6.65048968 230.430141,7.83164966 C230.475592,8.01336658 230.521043,8.05879581 230.611944,8.01336658 C230.839198,7.96793735 231.202804,7.78622043 231.248255,7.69536197 C231.384607,7.60450351 231.384607,7.42278659 231.339156,7.19564044 C231.021001,5.42390047 230.884649,3.33415589 230.97555,0.835548246 C230.884649,0.744689786 230.566494,0.699260556 230.293789,0.744689786 C229.930183,1.24441132 229.475676,1.69870362 229.202972,1.69870362 C229.021169,1.69870362 228.566662,1.69870362 227.930351,1.56241593 C227.20314,1.42612824 224.930603,1.15355286 223.657983,1.15355286 C220.97639,1.15355286 218.522051,2.10756669 217.567585,2.65271744 C215.476852,3.78844819 213.976978,5.74190508 213.976978,8.87652195 C213.976978,10.3302573 214.658739,12.2837142 215.522303,13.2831573 C216.885825,14.9186095 218.840206,15.8726234 221.930855,17.1446418 C225.703266,18.6438064 226.839534,19.2343864 227.793999,20.0066833 C228.975718,21.0061263 229.70293,22.1418571 229.70293,23.7318801 C229.70293,27.5025062 226.839534,30.5462646 222.703518,30.5462646 C219.431065,30.5462646 216.749472,29.0016708 215.476852,27.0936432 C214.658739,25.9579124 214.249682,24.6404647 214.158781,24.0044555 C214.022429,23.5501632 213.931527,23.4593048 213.795175,23.4593048 C213.567921,23.4593048 213.295217,23.504734 213.113414,23.5955925 C212.931611,23.6410217 212.931611,23.9135971 213.067963,24.2770309 C213.340668,25.7761955 213.613372,27.8205108 213.704274,29.9102554 C213.749724,30.7279816 213.840626,31.3639908 214.022429,31.6819954 C214.158781,31.9545708 214.249682,32 214.340584,32 Z" id="Path"></path><path d="M245.272329,15.5546188 C244.908723,15.5546188 244.636019,15.1911849 244.636019,14.8277511 C244.636019,11.5568465 244.545118,8.33137119 244.545118,5.06046663 C244.545118,3.78844819 244.68147,3.51587281 245.135977,3.37958512 C245.590484,3.1978682 247.044908,3.06158051 249.635599,3.06158051 L253.271657,3.06158051 C257.044068,3.06158051 257.362223,4.24274049 257.862181,7.78622043 C257.907632,8.01336658 258.089435,8.10422504 258.862097,8.14965427 C258.862097,7.15021121 258.907548,4.92417894 259.271154,2.78900513 C259.362055,2.19842515 259.407506,2.10756669 259.089351,1.88042054 C258.907548,1.74413285 258.725745,1.65327439 257.953082,1.65327439 C255.862349,1.65327439 252.408094,1.88042054 250.181008,1.88042054 L245.817738,1.88042054 C243.363399,1.88042054 241.863525,1.78956208 240.409101,1.78956208 L238.954678,1.78956208 C238.545621,1.78956208 238.500171,1.83499131 238.500171,1.92584977 L238.45472,2.51642975 C238.409269,2.60728821 238.45472,2.65271744 238.545621,2.69814667 C239.500087,2.92529282 240.3182,3.06158051 240.772707,3.28872666 C241.181764,3.42501435 241.363567,3.6521605 241.409017,4.1064528 C241.499919,5.0150374 241.681722,7.10478198 241.681722,13.3740157 L241.681722,20.2792587 C241.681722,25.0493278 241.454468,28.1385155 241.409017,28.7745247 C241.363567,29.4105339 241.045412,29.819397 239.04558,30.3191185 C239.000129,30.3191185 238.909227,30.3645477 238.863777,30.5008354 C238.818326,30.6825523 238.863777,31.2731323 238.954678,31.3185616 C242.81799,31.1368446 246.181344,30.9551277 249.408346,30.9551277 C252.726249,30.9551277 255.816898,31.0005569 257.225871,31.0459862 C258.725745,31.0914154 258.998449,31.0914154 259.362055,31.0914154 C259.589309,31.0914154 259.725661,31.0005569 259.952914,30.7279816 C260.543774,29.3651047 261.225535,26.5939216 261.270986,24.8221817 C261.270986,24.7313232 261.270986,24.6404647 261.180084,24.5496063 C260.861929,24.4587478 260.634675,24.4133186 260.498323,24.4587478 C259.0439,29.1833877 256.953166,29.6831093 250.90822,29.6831093 C246.408597,29.6831093 245.454132,29.3651047 244.908723,28.5019493 C244.499667,27.7296524 244.499667,26.1850586 244.499667,22.7324371 C244.499667,19.0980987 244.817822,17.5989341 244.908723,17.371788 C245.045076,17.190071 245.135977,17.1446418 245.31778,17.0992126 C245.545034,17.0537833 246.044992,16.9174957 248.362979,16.9174957 C250.771867,16.9174957 252.453544,16.9174957 253.317108,17.0083541 C255.226039,17.1446418 255.816898,17.5989341 256.180504,18.6892356 C256.362307,19.2798156 256.498659,19.8703956 256.725913,20.4609756 C256.771363,20.6426925 256.907716,20.733551 256.998617,20.733551 C257.271321,20.733551 257.544026,20.6881217 257.725829,20.551834 C257.680378,19.6432495 257.453124,18.2349433 257.407674,16.781208 C257.407674,15.4637603 257.680378,13.7828788 257.771279,12.5562896 C257.680378,12.5562896 256.998617,12.5108603 256.816814,12.647148 C255.998701,15.2366141 255.635095,15.2366141 253.135305,15.4183311 C251.58998,15.5091895 249.68105,15.5546188 247.499415,15.5546188 L245.272329,15.5546188 Z" id="Path"></path><path d="M280.703697,1.10812363 C280.476443,1.10812363 279.931034,1.38069901 279.840133,1.42612824 C279.703781,1.5169867 279.65833,1.56241593 279.612879,1.78956208 C279.385626,2.51642975 279.158372,3.15243897 278.658414,4.42445741 C276.067723,10.7845496 270.88634,23.6410217 269.613719,26.2304878 C268.204747,29.0471001 267.841141,29.5922508 265.977661,30.0919723 C265.93221,30.22826 265.977661,30.7279816 266.068562,30.9551277 C266.114013,31.0005569 266.204915,31.0459862 266.477619,31.0459862 C266.841225,31.0459862 267.932042,30.9551277 268.886508,30.9551277 C269.795522,30.9551277 271.795354,31.0005569 273.749735,31.0459862 C273.886088,30.9096985 274.02244,30.4554062 274.02244,30.22826 C271.613551,29.4105339 271.295396,29.0016708 271.295396,28.047657 C271.295396,26.8210678 272.977073,22.323574 273.522482,21.0969848 C273.795186,20.5972633 274.02244,20.3701171 274.522398,20.3701171 C277.340343,20.2338294 280.930951,20.142971 284.612459,20.142971 C285.021516,20.142971 285.24877,20.551834 285.339671,20.8698387 C286.066883,22.6870079 287.339503,26.1396293 287.657658,26.9573555 C288.475771,29.1379585 288.248518,29.63768 285.703277,30.3645477 C285.703277,30.5008354 285.748728,30.9551277 285.839629,31.1368446 C285.88508,31.2277031 285.930531,31.2731323 286.066883,31.2731323 C286.566841,31.2731323 287.839461,31.0914154 289.339335,31.0914154 C290.793759,31.0914154 292.066379,31.1822739 294.793423,31.1822739 C294.884324,31.0914154 295.066127,30.3645477 294.975225,30.2736893 C292.293633,29.7739677 291.748224,28.5473785 290.930111,26.6847801 C290.384702,25.4127617 286.566841,16.5540618 285.112417,12.5562896 C283.567093,8.37680042 282.567177,6.15076815 281.158204,1.74413285 C281.067303,1.38069901 280.976401,1.10812363 280.703697,1.10812363 Z M275.385962,18.6438064 C274.840553,18.6438064 274.613299,18.3258018 274.704201,18.0986556 C276.476779,13.3285865 277.067639,11.8748511 279.294724,6.69591891 C279.431076,6.33248507 279.749232,6.24162661 279.885584,6.60506045 C281.612711,10.8299788 282.476275,13.3740157 284.248854,18.0077972 C284.339755,18.2349433 284.248854,18.5983772 283.885248,18.5983772 C282.74898,18.6438064 281.385458,18.6892356 279.067471,18.6892356 C276.749484,18.6892356 275.658666,18.6438064 275.385962,18.6438064 Z" id="Shape"></path></g><g id="Home-Decor-Marketpla" transform="translate(4.618, 43.562)" fill="#424B7B"><polygon id="Path" points="5.32907052e-15 0.234 1.287 0.234 1.287 4.082 5.941 4.082 5.941 0.234 7.241 0.234 7.241 9.438 5.941 9.438 5.941 5.226 1.287 5.226 1.287 9.438 5.32907052e-15 9.438"></polygon><path d="M23.759,4.823 C23.759,5.53366667 23.6355,6.18583333 23.3885,6.7795 C23.1415,7.37316667 22.8013333,7.8845 22.368,8.3135 C21.9346667,8.7425 21.419,9.07616667 20.821,9.3145 C20.223,9.55283333 19.573,9.672 18.871,9.672 C18.169,9.672 17.5211667,9.55283333 16.9275,9.3145 C16.3338333,9.07616667 15.8203333,8.7425 15.387,8.3135 C14.9536667,7.8845 14.6156667,7.37316667 14.373,6.7795 C14.1303333,6.18583333 14.009,5.53366667 14.009,4.823 C14.009,4.10366667 14.1303333,3.44716667 14.373,2.8535 C14.6156667,2.25983333 14.9536667,1.75283333 15.387,1.3325 C15.8203333,0.912166667 16.3338333,0.585 16.9275,0.351 C17.5211667,0.117 18.169,0 18.871,0 C19.573,0 20.223,0.117 20.821,0.351 C21.419,0.585 21.9346667,0.912166667 22.368,1.3325 C22.8013333,1.75283333 23.1415,2.25983333 23.3885,2.8535 C23.6355,3.44716667 23.759,4.10366667 23.759,4.823 Z M22.368,4.823 C22.368,4.32033333 22.2856667,3.84583333 22.121,3.3995 C21.9563333,2.95316667 21.7223333,2.561 21.419,2.223 C21.1156667,1.885 20.7495,1.6185 20.3205,1.4235 C19.8915,1.2285 19.4083333,1.131 18.871,1.131 C18.3423333,1.131 17.8635,1.2285 17.4345,1.4235 C17.0055,1.6185 16.6415,1.885 16.3425,2.223 C16.0435,2.561 15.8116667,2.95316667 15.647,3.3995 C15.4823333,3.84583333 15.4,4.32033333 15.4,4.823 C15.4,5.33433333 15.4823333,5.81533333 15.647,6.266 C15.8116667,6.71666667 16.0456667,7.10883333 16.349,7.4425 C16.6523333,7.77616667 17.0163333,8.03833333 17.441,8.229 C17.8656667,8.41966667 18.3423333,8.515 18.871,8.515 C19.3996667,8.515 19.8806667,8.41966667 20.314,8.229 C20.7473333,8.03833333 21.1156667,7.77616667 21.419,7.4425 C21.7223333,7.10883333 21.9563333,6.71666667 22.121,6.266 C22.2856667,5.81533333 22.368,5.33433333 22.368,4.823 Z" id="Shape"></path><polygon id="Path" points="35.272 7.306 35.298 7.306 38.015 0.234 40.017 0.234 40.017 9.438 38.73 9.438 38.73 1.742 38.704 1.742 35.649 9.438 34.83 9.438 31.788 1.742 31.762 1.742 31.762 9.438 30.514 9.438 30.514 0.234 32.516 0.234"></polygon><polygon id="Path" points="48.54 8.294 53.35 8.294 53.35 9.438 47.253 9.438 47.253 0.234 53.155 0.234 53.155 1.365 48.54 1.365 48.54 4.121 52.882 4.121 52.882 5.226 48.54 5.226"></polygon><path d="M68.316,0.234 L71.475,0.234 C72.0643333,0.234 72.6536667,0.320666667 73.243,0.494 C73.8323333,0.667333333 74.3653333,0.940333333 74.842,1.313 C75.3186667,1.68566667 75.7043333,2.16233333 75.999,2.743 C76.2936667,3.32366667 76.441,4.02133333 76.441,4.836 C76.441,5.62466667 76.2936667,6.30716667 75.999,6.8835 C75.7043333,7.45983333 75.3186667,7.9365 74.842,8.3135 C74.3653333,8.6905 73.8323333,8.97216667 73.243,9.1585 C72.6536667,9.34483333 72.0643333,9.438 71.475,9.438 L68.316,9.438 L68.316,0.234 Z M69.603,8.307 L71.215,8.307 C71.7696667,8.307 72.2831667,8.229 72.7555,8.073 C73.2278333,7.917 73.6351667,7.69166667 73.9775,7.397 C74.3198333,7.10233333 74.5863333,6.73833333 74.777,6.305 C74.9676667,5.87166667 75.063,5.382 75.063,4.836 C75.063,4.264 74.9676667,3.76133333 74.777,3.328 C74.5863333,2.89466667 74.3198333,2.53283333 73.9775,2.2425 C73.6351667,1.95216667 73.2278333,1.73116667 72.7555,1.5795 C72.2831667,1.42783333 71.7696667,1.352 71.215,1.352 L69.603,1.352 L69.603,8.307 Z" id="Shape"></path><polygon id="Path" points="84.496 8.294 89.306 8.294 89.306 9.438 83.209 9.438 83.209 0.234 89.111 0.234 89.111 1.365 84.496 1.365 84.496 4.121 88.838 4.121 88.838 5.226 84.496 5.226"></polygon><path d="M103.913,8.008 C103.549,8.502 103.076667,8.90283333 102.496,9.2105 C101.915333,9.51816667 101.217667,9.672 100.403,9.672 C99.701,9.672 99.0531667,9.55283333 98.4595,9.3145 C97.8658333,9.07616667 97.3545,8.7425 96.9255,8.3135 C96.4965,7.8845 96.1606667,7.37316667 95.918,6.7795 C95.6753333,6.18583333 95.554,5.53366667 95.554,4.823 C95.554,4.10366667 95.6775,3.44716667 95.9245,2.8535 C96.1715,2.25983333 96.5138333,1.75283333 96.9515,1.3325 C97.3891667,0.912166667 97.907,0.585 98.505,0.351 C99.103,0.117 99.753,0 100.455,0 C100.767,0 101.083333,0.0303333333 101.404,0.091 C101.724667,0.151666667 102.032333,0.242666667 102.327,0.364 C102.621667,0.485333333 102.890333,0.634833333 103.133,0.8125 C103.375667,0.990166667 103.583667,1.196 103.757,1.43 L102.743,2.21 C102.517667,1.898 102.199167,1.64016667 101.7875,1.4365 C101.375833,1.23283333 100.931667,1.131 100.455,1.131 C99.9176667,1.131 99.4345,1.2285 99.0055,1.4235 C98.5765,1.6185 98.2103333,1.885 97.907,2.223 C97.6036667,2.561 97.3696667,2.95316667 97.205,3.3995 C97.0403333,3.84583333 96.958,4.32033333 96.958,4.823 C96.958,5.343 97.0381667,5.82833333 97.1985,6.279 C97.3588333,6.72966667 97.5885,7.12183333 97.8875,7.4555 C98.1865,7.78916667 98.5505,8.05133333 98.9795,8.242 C99.4085,8.43266667 99.8873333,8.528 100.416,8.528 C100.936,8.528 101.408333,8.424 101.833,8.216 C102.257667,8.008 102.608667,7.70466667 102.886,7.306 L103.913,8.008 Z" id="Path"></path><path d="M119.352,4.823 C119.352,5.53366667 119.2285,6.18583333 118.9815,6.7795 C118.7345,7.37316667 118.394333,7.8845 117.961,8.3135 C117.527667,8.7425 117.012,9.07616667 116.414,9.3145 C115.816,9.55283333 115.166,9.672 114.464,9.672 C113.762,9.672 113.114167,9.55283333 112.5205,9.3145 C111.926833,9.07616667 111.413333,8.7425 110.98,8.3135 C110.546667,7.8845 110.208667,7.37316667 109.966,6.7795 C109.723333,6.18583333 109.602,5.53366667 109.602,4.823 C109.602,4.10366667 109.723333,3.44716667 109.966,2.8535 C110.208667,2.25983333 110.546667,1.75283333 110.98,1.3325 C111.413333,0.912166667 111.926833,0.585 112.5205,0.351 C113.114167,0.117 113.762,0 114.464,0 C115.166,0 115.816,0.117 116.414,0.351 C117.012,0.585 117.527667,0.912166667 117.961,1.3325 C118.394333,1.75283333 118.7345,2.25983333 118.9815,2.8535 C119.2285,3.44716667 119.352,4.10366667 119.352,4.823 Z M117.961,4.823 C117.961,4.32033333 117.878667,3.84583333 117.714,3.3995 C117.549333,2.95316667 117.315333,2.561 117.012,2.223 C116.708667,1.885 116.3425,1.6185 115.9135,1.4235 C115.4845,1.2285 115.001333,1.131 114.464,1.131 C113.935333,1.131 113.4565,1.2285 113.0275,1.4235 C112.5985,1.6185 112.2345,1.885 111.9355,2.223 C111.6365,2.561 111.404667,2.95316667 111.24,3.3995 C111.075333,3.84583333 110.993,4.32033333 110.993,4.823 C110.993,5.33433333 111.075333,5.81533333 111.24,6.266 C111.404667,6.71666667 111.638667,7.10883333 111.942,7.4425 C112.245333,7.77616667 112.609333,8.03833333 113.034,8.229 C113.458667,8.41966667 113.935333,8.515 114.464,8.515 C114.992667,8.515 115.473667,8.41966667 115.907,8.229 C116.340333,8.03833333 116.708667,7.77616667 117.012,7.4425 C117.315333,7.10883333 117.549333,6.71666667 117.714,6.266 C117.878667,5.81533333 117.961,5.33433333 117.961,4.823 Z" id="Shape"></path><path d="M127.394,9.438 L126.107,9.438 L126.107,0.234 L129.058,0.234 C129.5,0.234 129.920333,0.2795 130.319,0.3705 C130.717667,0.4615 131.0665,0.606666667 131.3655,0.806 C131.6645,1.00533333 131.900667,1.2675 132.074,1.5925 C132.247333,1.9175 132.334,2.314 132.334,2.782 C132.334,3.458 132.126,4.004 131.71,4.42 C131.294,4.836 130.756667,5.10033333 130.098,5.213 L132.672,9.438 L131.112,9.438 L128.772,5.343 L127.394,5.343 L127.394,9.438 Z M127.394,4.264 L128.876,4.264 C129.179333,4.264 129.461,4.238 129.721,4.186 C129.981,4.134 130.2085,4.0495 130.4035,3.9325 C130.5985,3.8155 130.752333,3.66383333 130.865,3.4775 C130.977667,3.29116667 131.034,3.05933333 131.034,2.782 C131.034,2.50466667 130.977667,2.27283333 130.865,2.0865 C130.752333,1.90016667 130.602833,1.75066667 130.4165,1.638 C130.230167,1.52533333 130.011333,1.44516667 129.76,1.3975 C129.508667,1.34983333 129.244333,1.326 128.967,1.326 L127.394,1.326 L127.394,4.264 Z" id="Shape"></path><polygon id="Path" points="152.097 7.306 152.123 7.306 154.84 0.234 156.842 0.234 156.842 9.438 155.555 9.438 155.555 1.742 155.529 1.742 152.474 9.438 151.655 9.438 148.613 1.742 148.587 1.742 148.587 9.438 147.339 9.438 147.339 0.234 149.341 0.234"></polygon><path d="M164.455,9.438 L163.025,9.438 L167.016,0.234 L168.186,0.234 L172.138,9.438 L170.682,9.438 L169.746,7.176 L165.378,7.176 L164.455,9.438 Z M165.833,6.045 L169.278,6.045 L167.562,1.729 L165.833,6.045 Z" id="Shape"></path><path d="M179.608,9.438 L178.321,9.438 L178.321,0.234 L181.272,0.234 C181.714,0.234 182.134333,0.2795 182.533,0.3705 C182.931667,0.4615 183.2805,0.606666667 183.5795,0.806 C183.8785,1.00533333 184.114667,1.2675 184.288,1.5925 C184.461333,1.9175 184.548,2.314 184.548,2.782 C184.548,3.458 184.34,4.004 183.924,4.42 C183.508,4.836 182.970667,5.10033333 182.312,5.213 L184.886,9.438 L183.326,9.438 L180.986,5.343 L179.608,5.343 L179.608,9.438 Z M179.608,4.264 L181.09,4.264 C181.393333,4.264 181.675,4.238 181.935,4.186 C182.195,4.134 182.4225,4.0495 182.6175,3.9325 C182.8125,3.8155 182.966333,3.66383333 183.079,3.4775 C183.191667,3.29116667 183.248,3.05933333 183.248,2.782 C183.248,2.50466667 183.191667,2.27283333 183.079,2.0865 C182.966333,1.90016667 182.816833,1.75066667 182.6305,1.638 C182.444167,1.52533333 182.225333,1.44516667 181.974,1.3975 C181.722667,1.34983333 181.458333,1.326 181.181,1.326 L179.608,1.326 L179.608,4.264 Z" id="Shape"></path><polygon id="Path" points="192.59 4.29 192.616 4.29 196.724 0.234 198.505 0.234 194.033 4.446 198.778 9.438 196.932 9.438 192.616 4.68 192.59 4.68 192.59 9.438 191.303 9.438 191.303 0.234 192.59 0.234"></polygon><polygon id="Path" points="206.157 8.294 210.967 8.294 210.967 9.438 204.87 9.438 204.87 0.234 210.772 0.234 210.772 1.365 206.157 1.365 206.157 4.121 210.499 4.121 210.499 5.226 206.157 5.226"></polygon><polygon id="Path" points="220.907 9.438 219.62 9.438 219.62 1.365 216.669 1.365 216.669 0.234 223.858 0.234 223.858 1.365 220.907 1.365"></polygon><path d="M230.08,0.234 L232.888,0.234 C233.382,0.234 233.832667,0.283833333 234.24,0.3835 C234.647333,0.483166667 234.994,0.637 235.28,0.845 C235.566,1.053 235.787,1.31733333 235.943,1.638 C236.099,1.95866667 236.177,2.34433333 236.177,2.795 C236.177,3.25433333 236.0925,3.64866667 235.9235,3.978 C235.7545,4.30733333 235.5205,4.576 235.2215,4.784 C234.9225,4.992 234.567167,5.14583333 234.1555,5.2455 C233.743833,5.34516667 233.299667,5.395 232.823,5.395 L231.367,5.395 L231.367,9.438 L230.08,9.438 L230.08,0.234 Z M231.367,4.303 L232.732,4.303 C233.044,4.303 233.332167,4.27483333 233.5965,4.2185 C233.860833,4.16216667 234.088333,4.0755 234.279,3.9585 C234.469667,3.8415 234.617,3.68766667 234.721,3.497 C234.825,3.30633333 234.877,3.07233333 234.877,2.795 C234.877,2.51766667 234.822833,2.28583333 234.7145,2.0995 C234.606167,1.91316667 234.458833,1.7615 234.2725,1.6445 C234.086167,1.5275 233.863,1.44516667 233.603,1.3975 C233.343,1.34983333 233.061333,1.326 232.758,1.326 L231.367,1.326 L231.367,4.303 Z" id="Shape"></path><polygon id="Path" points="244.102 8.294 248.21 8.294 248.21 9.438 242.815 9.438 242.815 0.234 244.102 0.234"></polygon><path d="M254.835,9.438 L253.405,9.438 L257.396,0.234 L258.566,0.234 L262.518,9.438 L261.062,9.438 L260.126,7.176 L255.758,7.176 L254.835,9.438 Z M256.213,6.045 L259.658,6.045 L257.942,1.729 L256.213,6.045 Z" id="Shape"></path><path d="M276.358,8.008 C275.994,8.502 275.521667,8.90283333 274.941,9.2105 C274.360333,9.51816667 273.662667,9.672 272.848,9.672 C272.146,9.672 271.498167,9.55283333 270.9045,9.3145 C270.310833,9.07616667 269.7995,8.7425 269.3705,8.3135 C268.9415,7.8845 268.605667,7.37316667 268.363,6.7795 C268.120333,6.18583333 267.999,5.53366667 267.999,4.823 C267.999,4.10366667 268.1225,3.44716667 268.3695,2.8535 C268.6165,2.25983333 268.958833,1.75283333 269.3965,1.3325 C269.834167,0.912166667 270.352,0.585 270.95,0.351 C271.548,0.117 272.198,0 272.9,0 C273.212,0 273.528333,0.0303333333 273.849,0.091 C274.169667,0.151666667 274.477333,0.242666667 274.772,0.364 C275.066667,0.485333333 275.335333,0.634833333 275.578,0.8125 C275.820667,0.990166667 276.028667,1.196 276.202,1.43 L275.188,2.21 C274.962667,1.898 274.644167,1.64016667 274.2325,1.4365 C273.820833,1.23283333 273.376667,1.131 272.9,1.131 C272.362667,1.131 271.8795,1.2285 271.4505,1.4235 C271.0215,1.6185 270.655333,1.885 270.352,2.223 C270.048667,2.561 269.814667,2.95316667 269.65,3.3995 C269.485333,3.84583333 269.403,4.32033333 269.403,4.823 C269.403,5.343 269.483167,5.82833333 269.6435,6.279 C269.803833,6.72966667 270.0335,7.12183333 270.3325,7.4555 C270.6315,7.78916667 270.9955,8.05133333 271.4245,8.242 C271.8535,8.43266667 272.332333,8.528 272.861,8.528 C273.381,8.528 273.853333,8.424 274.278,8.216 C274.702667,8.008 275.053667,7.70466667 275.331,7.306 L276.358,8.008 Z" id="Path"></path><polygon id="Path" points="283.958 8.294 288.768 8.294 288.768 9.438 282.671 9.438 282.671 0.234 288.573 0.234 288.573 1.365 283.958 1.365 283.958 4.121 288.3 4.121 288.3 5.226 283.958 5.226"></polygon></g></g></g></g></svg>